<svg xmlns="http://www.w3.org/2000/svg" width="102" height="12.5" viewBox="0 0 102 12.5">
  <g id="craft5x" transform="translate(-36.021 -254.053)">
    <g id="그룹_1" data-name="그룹 1" transform="translate(36.021 254.053)">
      <path id="패스_1" data-name="패스 1" d="M93.928,254.134H82.742a.3.3,0,0,0-.31.3V256.6a.3.3,0,0,0,.31.3H93.928a.3.3,0,0,0,.311-.3v-2.169A.3.3,0,0,0,93.928,254.134Z" transform="translate(-39.852 -254.06)" fill="#1a1a1a"/>
      <path id="패스_2" data-name="패스 2" d="M91.712,259.1h-8.97a.3.3,0,0,0-.31.3v7.258a.3.3,0,0,0,.31.3h2.141a.3.3,0,0,0,.311-.3v-4.824h6.518a.3.3,0,0,0,.311-.3V259.4A.3.3,0,0,0,91.712,259.1Z" transform="translate(-39.852 -254.452)" fill="#1a1a1a"/>
      <path id="패스_3" data-name="패스 3" d="M59.514,261.111c.21-.062.416-.128.614-.2,1.706-.637,2.569-1.654,2.569-3.023v-.149a3.1,3.1,0,0,0-.3-1.3l-.009-.017a4.011,4.011,0,0,0-2.156-1.782,13.2,13.2,0,0,0-4.451-.511H52a.244.244,0,0,0-.25.243v2.18a.244.244,0,0,0,.25.243h1.339q1.338,0,3.376.008a5.467,5.467,0,0,1,1.5.163c.767.292.767.659.767.78v.1a.753.753,0,0,1-.179.482,1.365,1.365,0,0,1-.722.332,11.863,11.863,0,0,1-2.421.129H52a.244.244,0,0,0-.25.243v7.227a.244.244,0,0,0,.25.243h2.17a.244.244,0,0,0,.25-.243v-4.8h1.978l3.911,4.953a.227.227,0,0,0,.177.086h2.786a.237.237,0,0,0,.072-.012l.025-.008a.226.226,0,0,0,.106-.355Z" transform="translate(-37.319 -254.06)" fill="#1a1a1a"/>
      <path id="패스_4" data-name="패스 4" d="M78.6,265.187c-.127-.375-.186-.552-.416-.552H75.7a.275.275,0,0,0-.118.026l-.018.008a.283.283,0,0,0-.146.357l.556,1.465c.319.836.319.836.442.893a.275.275,0,0,0,.118.026h2.493a.281.281,0,0,0,.118-.026l.017-.008a.282.282,0,0,0,.145-.359Z" transform="translate(-39.271 -254.91)" fill="#1a1a1a"/>
      <path id="패스_5" data-name="패스 5" d="M76.89,262.174a.28.28,0,0,0,.043-.25c-.014-.048-.048-.16-2.517-6.593-.462-1.242-.462-1.242-.685-1.242h-2.35a.283.283,0,0,0-.261.175c-.019.046-.149.372-1.043,2.666q-2.985,7.658-3.6,9.224a.284.284,0,0,0-.019.1.3.3,0,0,0,.3.3h2.484a.306.306,0,0,0,.3-.242c1.543-3.96,2.546-6.539,3-7.7l.87,2.253a12.781,12.781,0,0,0,.5,1.3.281.281,0,0,0,.237.129h2.511A.283.283,0,0,0,76.89,262.174Z" transform="translate(-38.534 -254.056)" fill="#1a1a1a"/>
      <path id="패스_6" data-name="패스 6" d="M109.272,254.053H98.128a.3.3,0,0,0-.31.3v2.194a.3.3,0,0,0,.31.3h11.143a.3.3,0,0,0,.311-.3v-2.194A.3.3,0,0,0,109.272,254.053Z" transform="translate(-41.122 -254.053)" fill="#1a1a1a"/>
      <path id="패스_7" data-name="패스 7" d="M105.191,259.057h-2.172a.291.291,0,0,0-.3.29v7.3a.3.3,0,0,0,.3.3h2.172a.3.3,0,0,0,.3-.3v-7.3A.291.291,0,0,0,105.191,259.057Z" transform="translate(-41.527 -254.449)" fill="#1a1a1a"/>
      <path id="패스_8" data-name="패스 8" d="M46.695,264.257H40.886a2.114,2.114,0,0,1-1.977-1.75.372.372,0,0,0-.385-.29h-2.1a.361.361,0,0,0-.4.392,4.549,4.549,0,0,0,4.543,4.544h6.129a.49.49,0,0,0,.49-.49v-1.917A.49.49,0,0,0,46.695,264.257Z" transform="translate(-36.021 -254.71)" fill="#1a1a1a"/>
      <path id="패스_9" data-name="패스 9" d="M46.763,254.053H40.989a4.966,4.966,0,0,0-4.966,4.966v.49a.263.263,0,0,0,.287.306h2.316a.278.278,0,0,0,.293-.315v-.481a2.071,2.071,0,0,1,2.071-2.071h5.774a.422.422,0,0,0,.422-.422v-2.051A.422.422,0,0,0,46.763,254.053Z" transform="translate(-36.021 -254.053)" fill="#1a1a1a"/>
    </g>
    <g id="그룹_3" data-name="그룹 3" transform="translate(108.036 254.053)">
      <g id="그룹_2" data-name="그룹 2" transform="translate(13.369)">
        <path id="패스_10" data-name="패스 10" d="M136.189,254.053H131.5l3.123,5.617,2.877-3.008Z" transform="translate(-129.286 -254.053)" fill="#001764"/>
        <path id="패스_11" data-name="패스 11" d="M145.7,254.053h-4.685l-3.089,3.238-2.877,3.012-5.966,6.25h4.685l3.089-3.238,2.877-3.012Z" transform="translate(-129.086 -254.053)" fill="#001764"/>
        <path id="패스_12" data-name="패스 12" d="M138.24,264.545l1.316,2.609h4.685l-3.124-5.617Z" transform="translate(-129.842 -254.654)" fill="#001764"/>
      </g>
      <path id="패스_13" data-name="패스 13" d="M124.942,258.68H120.57l.42-1.383h6.318l2.8-3.245H118.333l-2.372,7.872h6.825a1.388,1.388,0,0,1,1.065.29.466.466,0,0,1,.09.458c-.133.423-.616.634-1.436.634h-7.015l-.976,3.245h7.918c2.67,0,4.371-1.334,5.2-4.078.413-1.372.353-2.378-.178-2.993A3.223,3.223,0,0,0,124.942,258.68Z" transform="translate(-114.515 -254.053)" fill="#001764"/>
    </g>
  </g>
</svg>
